# xmcd
#
# Track frame offsets:
# 150
# 13010
# 32334
# 52011
# 63468
# 81845
# 93832
# 107314
# 124460
# 141537
# 150748
# 164667
# 188574
# 205113
#
# Disc length: 3131 seconds
#
#
# Revision: 0
# Processed by: cddbd v1.5.1PL0 Copyright (c) Steve Scherf et al.
# Submitted via: FreeRIP 2.80 
#
DISCID=ba0c390e
DTITLE=Boxcar Satan - Upstanding and Indigent
DYEAR=2003
DGENRE=Acid Punk
TTITLE0=Calamity Jones
TTITLE1=Shoot Down the Sun
TTITLE2=Ain't That the Truth
TTITLE3=I Got Back
TTITLE4=Split Wide
TTITLE5=Claudine
TTITLE6=Silent and Automatic
TTITLE7=How Can A Poor Man Stand Such Times and Live
TTITLE8=Shadow
TTITLE9=Osaka Touch Bar
TTITLE10=Better Now
TTITLE11=Pig In A Dress
TTITLE12=Drunk On the Blood of the Lamb
TTITLE13=Traveling Man
EXTD=
EXTT0=
EXTT1=
EXTT2=
EXTT3=
EXTT4=
EXTT5=
EXTT6=
EXTT7=
EXTT8=
EXTT9=
EXTT10=
EXTT11=
EXTT12=
EXTT13=
PLAYORDER=
